<?xml version="1.0" encoding="UTF-8"?>
<!DOCTYPE svg PUBLIC "-//W3C//DTD SVG 1.1//EN" "http://www.w3.org/Graphics/SVG/1.1/DTD/svg11.dtd">
<svg xmlns="http://www.w3.org/2000/svg" version="1.1" viewBox="0 0 73 73" stroke="none">
	<rect width="100%" height="100%" fill="#ffffff"/>
	<path d="M20,20h7v1h-7z M28,20h4v2h-4z M32,20h1v1h-1z M36,20h2v2h-2z M39,20h1v1h-1z M41,20h4v1h-4z M46,20h7v1h-7z M20,21h1v6h-1z M26,21h1v6h-1z M33,21h2v2h-2z M38,21h1v1h-1z M40,21h1v1h-1z M43,21h1v2h-1z M46,21h1v6h-1z M52,21h1v6h-1z M22,22h3v3h-3z M32,22h1v2h-1z M44,22h1v9h-1z M48,22h3v3h-3z M28,23h2v1h-2z M35,23h1v2h-1z M39,23h1v3h-1z M42,23h1v1h-1z M29,24h1v2h-1z M31,24h1v2h-1z M33,24h2v1h-2z M36,24h3v1h-3z M41,24h1v1h-1z M43,24h1v1h-1z M30,25h1v3h-1z M32,25h1v4h-1z M34,25h1v4h-1z M38,25h1v3h-1z M42,25h1v2h-1z M21,26h5v1h-5z M28,26h1v2h-1z M36,26h1v1h-1z M40,26h1v1h-1z M47,26h5v1h-5z M29,27h1v1h-1z M31,27h1v2h-1z M37,27h1v3h-1z M43,27h1v4h-1z M20,28h1v3h-1z M22,28h1v7h-1z M23,28h1v2h-1z M25,28h3v1h-3z M35,28h1v1h-1z M40,28h3v1h-3z M46,28h1v2h-1z M49,28h1v5h-1z M51,28h2v1h-2z M24,29h1v3h-1z M29,29h2v1h-2z M33,29h1v2h-1z M36,29h1v1h-1z M39,29h1v1h-1z M45,29h1v2h-1z M47,29h1v3h-1z M50,29h1v1h-1z M52,29h1v3h-1z M21,30h1v1h-1z M26,30h3v1h-3z M30,30h1v2h-1z M32,30h1v4h-1z M38,30h1v2h-1z M40,30h3v1h-3z M48,30h1v1h-1z M23,31h1v1h-1z M28,31h1v1h-1z M31,31h1v2h-1z M35,31h1v3h-1z M36,31h1v1h-1z M42,31h1v3h-1z M46,31h1v1h-1z M51,31h1v1h-1z M20,32h2v1h-2z M25,32h2v1h-2z M34,32h1v2h-1z M45,32h1v1h-1z M48,32h1v1h-1z M20,33h1v1h-1z M28,33h1v1h-1z M30,33h1v3h-1z M36,33h2v1h-2z M39,33h1v2h-1z M41,33h1v4h-1z M50,33h1v4h-1z M51,33h1v1h-1z M24,34h2v2h-2z M26,34h1v1h-1z M29,34h1v2h-1z M31,34h1v1h-1z M33,34h1v1h-1z M40,34h1v1h-1z M44,34h2v1h-2z M48,34h1v6h-1z M21,35h1v2h-1z M23,35h1v3h-1z M27,35h2v3h-2z M32,35h1v2h-1z M45,35h1v1h-1z M49,35h1v3h-1z M26,36h1v1h-1z M31,36h1v3h-1z M34,36h1v1h-1z M36,36h1v1h-1z M43,36h2v1h-2z M46,36h1v2h-1z M20,37h1v1h-1z M25,37h1v2h-1z M30,37h1v1h-1z M33,37h1v3h-1z M35,37h1v4h-1z M38,37h1v5h-1z M43,37h1v1h-1z M52,37h1v1h-1z M22,38h1v1h-1z M26,38h1v1h-1z M28,38h1v3h-1z M29,38h1v1h-1z M32,38h1v1h-1z M34,38h1v1h-1z M36,38h2v2h-2z M40,38h3v1h-3z M44,38h2v2h-2z M50,38h2v1h-2z M20,39h2v2h-2z M24,39h1v1h-1z M30,39h1v1h-1z M39,39h1v3h-1z M40,39h1v1h-1z M47,39h1v1h-1z M51,39h2v1h-2z M22,40h1v4h-1z M26,40h1v1h-1z M29,40h1v3h-1z M31,40h1v2h-1z M37,40h1v1h-1z M41,40h1v2h-1z M43,40h1v3h-1z M49,40h2v1h-2z M20,41h1v1h-1z M25,41h1v1h-1z M27,41h1v4h-1z M32,41h2v1h-2z M36,41h1v3h-1z M40,41h1v2h-1z M46,41h1v1h-1z M52,41h1v2h-1z M23,42h2v2h-2z M26,42h1v1h-1z M28,42h1v1h-1z M30,42h1v2h-1z M34,42h1v5h-1z M44,42h1v10h-1z M47,42h1v3h-1z M49,42h1v4h-1z M51,42h1v1h-1z M21,43h1v1h-1z M33,43h1v3h-1z M35,43h1v3h-1z M20,44h1v1h-1z M26,44h1v1h-1z M28,44h2v2h-2z M32,44h1v1h-1z M37,44h2v1h-2z M40,44h1v2h-1z M43,44h1v3h-1z M45,44h2v1h-2z M48,44h1v5h-1z M51,44h2v1h-2z M30,45h2v1h-2z M38,45h2v3h-2z M41,45h1v5h-1z M20,46h7v1h-7z M28,46h1v2h-1z M32,46h1v1h-1z M36,46h1v3h-1z M46,46h1v1h-1z M20,47h1v6h-1z M26,47h1v6h-1z M30,47h2v1h-2z M35,47h1v1h-1z M42,47h1v4h-1z M50,47h1v2h-1z M52,47h1v1h-1z M22,48h3v3h-3z M32,48h1v1h-1z M38,48h1v1h-1z M40,48h1v2h-1z M43,48h1v1h-1z M45,48h3v1h-3z M51,48h1v1h-1z M28,49h3v1h-3z M35,49h1v2h-1z M45,49h1v2h-1z M49,49h1v1h-1z M52,49h1v1h-1z M28,50h1v1h-1z M30,50h2v1h-2z M36,50h2v1h-2z M46,50h2v1h-2z M50,50h1v1h-1z M29,51h1v1h-1z M32,51h1v2h-1z M37,51h1v2h-1z M39,51h1v1h-1z M43,51h1v2h-1z M46,51h1v1h-1z M48,51h1v1h-1z M52,51h1v1h-1z M21,52h5v1h-5z M28,52h1v1h-1z M33,52h1v1h-1z M40,52h3v1h-3z M50,52h1v1h-1z" fill="#000000"/>
</svg>
